<?xml version="1.0" encoding="UTF-8"?>
<svg xmlns="http://www.w3.org/2000/svg" width="1400" height="420" viewBox="0 0 1400 420">
<defs>
<linearGradient id="g" x1="0%" y1="100%" x2="100%" y2="0%">
<stop offset="0%" stop-color="#4F1DCC"/>
<stop offset="55%" stop-color="#7C3AED"/>
<stop offset="100%" stop-color="#C084FC"/>
</linearGradient>
<style>
.brand{font-family:Inter,Arial,sans-serif;font-size:108px;font-weight:800;letter-spacing:-4px}
.tag{font-family:Inter,Arial,sans-serif;font-size:28px;font-weight:500;letter-spacing:7px;fill:#374151}
</style>
</defs>

<rect width="100%" height="100%" fill="#fff"/>

<!-- Icon -->
<g transform="translate(35,38)">
  <path d="M45 300 A140 140 0 1 1 290 300" fill="none" stroke="url(#g)" stroke-width="9"/>
  <rect x="95" y="195" width="38" height="95" rx="4" fill="url(#g)"/>
  <rect x="150" y="150" width="38" height="140" rx="4" fill="url(#g)"/>
  <rect x="205" y="88" width="38" height="202" rx="4" fill="url(#g)"/>
  <path d="M78 220 C120 208 155 182 182 150 C206 120 230 85 252 45"
        fill="none" stroke="url(#g)" stroke-width="11"
        stroke-linecap="round" stroke-linejoin="round"/>
  <polygon points="252,45 238,50 255,18 280,36" fill="url(#g)"/>
</g>

<line x1="360" y1="52" x2="360" y2="340" stroke="#1F2937" stroke-width="3"/>

<text x="420" y="185" class="brand" fill="#0F172A">
aktien<tspan fill="url(#g)">KI</tspan><tspan fill="#0F172A">.com</tspan>
</text>

<!-- Tagline with decorative lines -->
<line x1="420" y1="255" x2="495" y2="255" stroke="url(#g)" stroke-width="4" stroke-linecap="round"/>
<text x="515" y="265" class="tag">MARKET INTELLIGENCE PLATFORM</text>
<line x1="1185" y1="255" x2="1260" y2="255" stroke="url(#g)" stroke-width="4" stroke-linecap="round"/>

</svg>
